<?xml version="1.0" encoding="UTF-8" standalone="no"?>
<svg
   version="1.0"
   width="803.000000pt"
   height="250.000000pt"
   viewBox="0 0 803.000000 250.000000"
   preserveAspectRatio="xMidYMid meet"
   id="svg13"
   sodipodi:docname="signature_2.svg"
   inkscape:version="1.3.2 (091e20e, 2023-11-25, custom)"
   xmlns:inkscape="http://www.inkscape.org/namespaces/inkscape"
   xmlns:sodipodi="http://sodipodi.sourceforge.net/DTD/sodipodi-0.dtd"
   xmlns="http://www.w3.org/2000/svg"
   xmlns:svg="http://www.w3.org/2000/svg">
  <defs
     id="defs13" />
  <sodipodi:namedview
     id="namedview13"
     pagecolor="#ffffff"
     bordercolor="#000000"
     borderopacity="0.25"
     inkscape:showpageshadow="2"
     inkscape:pageopacity="0.0"
     inkscape:pagecheckerboard="0"
     inkscape:deskcolor="#d1d1d1"
     inkscape:document-units="pt"
     inkscape:zoom="1.1749156"
     inkscape:cx="412.37005"
     inkscape:cy="114.47631"
     inkscape:window-width="2560"
     inkscape:window-height="1494"
     inkscape:window-x="2869"
     inkscape:window-y="-11"
     inkscape:window-maximized="1"
     inkscape:current-layer="g13" />
  <g
     transform="translate(0.000000,250.000000) scale(0.100000,-0.100000)"
     fill="#000000"
     stroke="none"
     id="g13"
     style="stroke-width:20.00000003;stroke-dasharray:none">
    <path
       d="M4400 1681 c-52 -21 -154 -57 -220 -78 -25 -8 -73 -25 -107 -38 -67 -25 -78 -21 -68 23 4 21 0 33 -14 46 -32 29 -58 13 -66 -42 -11 -79 -15 -86 -55 -110 -22 -12 -40 -29 -40 -36 0 -21 27 -38 50 -31 17 5 20 2 20 -23 0 -68 -20 -137 -45 -155 -29 -22 -32 -45 -8 -62 14 -11 15 -20 5 -86 -24 -151 -15 -238 28 -281 53 -53 93 -40 257 85 56 42 104 77 107 77 3 0 27 14 53 32 26 17 49 32 50 33 1 0 0 11 -4 23 -4 16 -13 22 -33 22 -16 0 -30 -4 -32 -8 -1 -5 -38 -32 -80 -60 -42 -28 -80 -56 -83 -62 -4 -6 -23 -22 -43 -36 -21 -13 -52 -36 -71 -49 -63 -46 -95 -29 -112 60 -8 42 5 179 22 231 12 40 19 42 339 137 63 19 115 38 117 44 2 5 -2 17 -9 26 -14 18 -5 20 -343 -73 -38 -11 -71 -20 -72 -20 -7 0 -1 47 13 114 l17 75 91 35 c87 34 137 53 310 117 44 16 90 29 103 29 25 0 32 27 11 48 -16 16 -33 14 -88 -7z"
       id="path1"
       style="stroke-width:21;stroke-dasharray:none;stroke:#000000;stroke-opacity:1" />
    <path
       d="M6287 1600 c-45 -28 -125 -121 -159 -184 -9 -17 -45 -89 -80 -161 -61 -128 -62 -131 -63 -217 0 -80 2 -89 30 -130 38 -53 65 -67 138 -69 70 -3 135 28 227 106 78 67 125 153 111 202 -8 27 -6 31 23 41 17 6 46 13 64 17 31 6 33 5 31 -17 -4 -34 11 -90 29 -110 9 -11 29 -18 50 -18 36 0 80 30 152 101 17 17 32 30 33 28 1 -2 9 -24 17 -49 20 -60 56 -74 101 -41 25 19 33 21 40 10 5 -8 9 -17 9 -21 0 -4 14 -15 32 -24 67 -35 219 6 295 79 35 33 59 92 72 177 8 51 7 54 -24 88 -29 32 -38 36 -83 36 -65 0 -143 -45 -234 -136 -67 -67 -96 -125 -82 -162 5 -13 2 -15 -12 -10 -38 14 -44 26 -44 86 0 32 -5 79 -11 104 -9 36 -15 44 -35 44 -12 0 -30 -10 -38 -22 -11 -16 -31 -24 -73 -29 -32 -4 -68 -11 -81 -15 -21 -6 -22 -5 -12 20 15 41 12 56 -11 56 -15 0 -26 -13 -41 -49 l-21 -49 -81 -17 c-45 -9 -139 -33 -211 -52 -71 -19 -155 -37 -184 -39 -66 -5 -78 -14 -65 -51 12 -35 30 -34 211 13 73 19 139 34 147 34 42 0 -58 -158 -131 -207 -113 -76 -186 -89 -230 -40 -62 67 -60 134 5 290 77 180 117 235 214 291 61 34 81 62 66 90 -11 20 -27 36 -39 36 -3 0 -26 -13 -52 -30z m1064 -243 c35 -16 36 -18 29 -54 -18 -90 -47 -131 -122 -169 -82 -42 -168 -26 -168 31 0 24 46 99 82 132 26 24 130 84 138 80 3 -2 21 -11 41 -20z m-571 -179 c-71 -66 -110 -62 -110 12 l0 37 78 15 c69 13 77 13 81 -1 2 -9 -19 -36 -49 -63z"
       id="path2"
       style="stroke-width:21;stroke-dasharray:none;stroke:#000000;stroke-opacity:1" />
    <path
       d="M830 1585 c0 -9 7 -32 15 -53 19 -45 15 -49 -86 -88 -38 -14 -69 -28 -69 -30 0 -12 74 -34 93 -29 51 15 177 79 177 90 0 6 -11 17 -24 23 -15 6 -27 23 -31 41 -10 45 -75 85 -75 46z"
       id="path3"
       style="stroke-width:21;stroke-dasharray:none;stroke:#000000;stroke-opacity:1" />
    <path
       d="M2895 1589 c-6 -8 26 -145 45 -193 11 -30 -11 -49 -44 -36 -12 4 -33 10 -48 14 -26 6 -26 5 -17 -26 13 -47 13 -48 -29 -48 -21 0 -56 -9 -77 -20 l-40 -21 -3 21 c-5 27 14 48 49 58 28 7 29 8 13 30 -11 15 -23 22 -35 19 -16 -4 -19 1 -19 36 0 34 -7 49 -35 80 -44 48 -70 50 -61 5 4 -18 9 -59 13 -90 l6 -58 -52 -22 c-51 -21 -52 -22 -29 -34 12 -7 31 -13 40 -14 18 0 48 -26 48 -41 0 -11 -196 -109 -218 -109 -7 0 -10 -4 -7 -10 12 -20 72 -9 144 25 96 46 101 46 101 -12 0 -27 3 -57 6 -68 5 -18 1 -20 -40 -17 -50 4 -51 5 -37 31 6 11 6 22 0 32 -8 11 -12 11 -16 1 -13 -32 -87 -133 -104 -142 -18 -10 -27 -40 -11 -40 20 0 75 44 93 75 23 39 33 41 102 20 79 -24 168 -72 242 -131 99 -79 151 -103 251 -115 47 -6 92 -8 101 -4 31 11 -9 34 -86 51 -92 19 -115 28 -236 98 -53 31 -99 56 -103 56 -6 0 -94 41 -102 48 -3 2 -5 36 -5 75 0 65 -2 72 -24 83 -22 11 -22 13 -5 22 18 9 161 62 169 62 1 0 5 -18 7 -41 3 -36 2 -40 -16 -35 -19 5 -96 -46 -96 -64 0 -5 25 0 55 10 30 10 57 15 59 11 3 -4 -3 -25 -14 -46 -22 -42 -13 -75 19 -75 23 0 93 75 120 129 12 23 24 41 27 41 6 0 34 -65 34 -79 0 -6 -16 -27 -36 -46 -20 -20 -34 -38 -32 -41 2 -2 22 5 43 16 22 11 42 20 46 20 4 0 13 -15 19 -34 11 -35 52 -86 68 -86 10 0 9 86 -1 96 -4 4 -7 0 -7 -9 0 -35 -22 -26 -41 18 l-21 47 33 74 c31 71 32 74 14 94 -22 24 -35 18 -35 -18 0 -41 -11 -73 -24 -69 -10 3 -43 104 -45 138 -1 8 15 23 35 32 41 20 37 37 -11 37 -37 0 -33 -7 -51 106 -8 54 -71 113 -89 83z m70 -282 c8 -13 18 -38 21 -56 6 -29 2 -37 -37 -77 -24 -24 -47 -44 -51 -44 -4 0 -8 45 -8 100 l0 100 30 0 c20 0 34 -8 45 -23z"
       id="path4"
       style="stroke-width:21;stroke-dasharray:none;stroke:#000000;stroke-opacity:1" />
    <path
       d="M3103 1486 c32 -30 45 -32 54 -11 7 21 5 22 -42 30 l-40 6 28 -25z"
       id="path5"
       style="stroke-width:21;stroke-dasharray:none;stroke:#000000;stroke-opacity:1" />
    <path
       d="M1331 1457 c-6 -8 -72 -44 -146 -81 -74 -37 -135 -72 -135 -77 0 -5 11 -9 24 -9 14 0 27 -4 31 -10 3 -5 10 -114 16 -242 6 -128 13 -239 15 -247 12 -37 19 14 24 154 3 84 8 156 12 160 7 7 91 -22 142 -48 51 -27 73 1 62 77 -9 56 -51 98 -108 105 -23 3 -43 11 -45 17 -6 17 94 122 133 140 37 18 42 34 18 58 -19 19 -28 20 -43 3z m-111 -137 c0 -5 -8 -25 -17 -45 -15 -31 -15 -37 -2 -50 8 -9 39 -18 68 -22 55 -6 71 -23 71 -75 0 -19 -5 -20 -57 -16 -32 2 -71 11 -88 19 -30 14 -30 16 -29 93 0 65 3 81 19 92 22 16 35 18 35 4z"
       id="path6"
       style="stroke-width:21;stroke-dasharray:none;stroke:#000000;stroke-opacity:1" />
    <path
       d="M2072 1448 c-7 -7 -12 -41 -12 -84 l0 -71 -37 -7 c-66 -10 -70 -9 -76 30 -7 42 -42 84 -69 84 -21 0 -23 -21 -7 -86 14 -53 9 -59 -49 -72 l-43 -10 -15 39 c-15 36 -43 57 -63 45 -5 -3 -6 -25 -4 -49 6 -51 6 -50 -104 -63 -52 -5 -63 -10 -63 -25 0 -27 58 -40 128 -28 31 5 60 9 64 9 4 0 14 -26 23 -57 19 -66 44 -116 77 -156 l23 -27 75 16 c41 9 118 19 170 22 52 4 101 11 108 15 21 14 13 26 -25 36 -41 11 -126 2 -228 -24 -60 -15 -125 -20 -125 -10 0 3 -7 40 -16 81 -22 108 -18 124 33 143 23 8 45 13 48 10 2 -3 9 -34 13 -68 10 -69 38 -113 48 -75 5 17 18 24 64 33 32 6 70 21 84 32 24 19 25 22 11 33 -14 10 -15 18 -6 54 l12 42 93 0 c85 0 94 2 99 20 9 34 -17 43 -101 37 l-77 -6 0 61 c0 50 -4 63 -21 74 -15 11 -23 11 -32 2z m-14 -234 c3 -35 -1 -45 -24 -63 -18 -14 -39 -21 -58 -19 -30 3 -31 5 -34 56 -3 47 -1 53 20 62 13 5 39 8 58 7 33 -2 35 -4 38 -43z"
       id="path7"
       style="stroke-width:21;stroke-dasharray:none;stroke:#000000;stroke-opacity:1" />
    <path
       d="M5473 1424 c-53 -25 -136 -98 -167 -145 -41 -64 15 -118 136 -133 110 -14 148 -27 148 -52 0 -20 -41 -34 -119 -42 -70 -8 -81 -18 -54 -51 17 -20 22 -21 73 -11 73 14 142 49 159 81 35 63 -23 113 -145 125 -94 9 -136 27 -132 56 4 28 114 118 144 118 28 0 46 23 42 52 -4 31 -24 32 -85 2z"
       id="path8"
       style="stroke-width:21;stroke-dasharray:none;stroke:#000000;stroke-opacity:1" />
    <path
       d="M4463 1410 c-19 -17 -20 -23 -10 -49 8 -22 8 -52 -1 -116 -13 -99 -3 -141 40 -169 21 -13 34 -14 82 -5 108 20 257 109 183 109 -13 0 -50 -11 -83 -24 -130 -52 -160 -41 -150 53 21 198 21 207 -5 214 -33 9 -33 9 -56 -13z"
       id="path9"
       style="stroke-width:21;stroke-dasharray:none;stroke:#000000;stroke-opacity:1" />
    <path
       d="M4811 1414 c-17 -12 -21 -22 -16 -38 14 -44 14 -73 3 -146 -10 -67 -9 -80 7 -114 10 -21 29 -42 41 -47 35 -13 122 7 202 46 119 58 98 89 -27 40 -68 -26 -119 -34 -140 -20 -11 6 -12 24 -5 84 13 123 11 190 -6 201 -21 14 -32 12 -59 -6z"
       id="path10"
       style="stroke-width:21;stroke-dasharray:none;stroke:#000000;stroke-opacity:1" />
    <path
       d="M5166 1392 c-3 -5 -6 -66 -8 -136 -3 -125 -2 -128 21 -147 25 -20 72 -22 78 -4 2 6 -7 21 -19 34 -17 19 -21 35 -20 80 1 31 4 72 7 91 8 47 -9 90 -34 90 -11 0 -22 -4 -25 -8z"
       id="path11"
       style="stroke-width:21;stroke-dasharray:none;stroke:#000000;stroke-opacity:1" />
    <path
       d="M875 1366 c-22 -7 -49 -17 -60 -23 -13 -7 -27 -8 -37 -2 -11 6 -18 4 -21 -6 -9 -23 9 -115 26 -132 13 -14 20 -12 61 12 26 15 71 51 101 81 l55 53 -29 16 c-35 18 -43 18 -96 1z m15 -47 c0 -17 -59 -71 -70 -64 -20 13 -9 35 28 54 45 24 42 24 42 10z"
       id="path12"
       style="stroke-width:21;stroke-dasharray:none;stroke:#000000;stroke-opacity:1" />
    <path
       d="M981 1233 c-13 -3 -67 -23 -120 -44 -53 -22 -104 -43 -114 -46 -10 -3 -16 -11 -14 -17 4 -12 58 -14 99 -2 23 7 29 4 42 -22 12 -23 13 -32 3 -40 -16 -12 -197 -72 -220 -72 -24 0 -21 -17 8 -36 23 -15 28 -14 124 29 l99 45 7 -26 c8 -34 -1 -40 -65 -44 l-55 -3 30 -14 c17 -7 37 -17 45 -22 58 -35 70 -25 70 59 0 61 3 72 23 85 l22 16 -27 0 c-42 1 -34 22 32 85 33 32 58 62 55 67 -4 5 -9 8 -13 8 -4 -1 -18 -4 -31 -6z m-1 -21 c0 -16 -78 -84 -89 -78 -19 12 -12 25 31 56 41 30 58 37 58 22z"
       id="path13"
       style="stroke-width:21;stroke-dasharray:none;stroke:#000000;stroke-opacity:1" />
  </g>
</svg>
