<?xml version="1.0" encoding="UTF-8" standalone="no"?>
<!-- Created with Inkscape (http://www.inkscape.org/) -->

<svg
   version="1.1"
   id="svg1"
   width="1070.6667"
   height="333.33334"
   viewBox="0 0 1070.6667 333.33334"
   sodipodi:docname="signature_new_path.svg"
   inkscape:version="1.3.2 (091e20e, 2023-11-25, custom)"
   xmlns:inkscape="http://www.inkscape.org/namespaces/inkscape"
   xmlns:sodipodi="http://sodipodi.sourceforge.net/DTD/sodipodi-0.dtd"
   xmlns="http://www.w3.org/2000/svg"
   xmlns:svg="http://www.w3.org/2000/svg">
  <defs
     id="defs1" />
  <sodipodi:namedview
     id="namedview1"
     pagecolor="#ffffff"
     bordercolor="#000000"
     borderopacity="0.25"
     inkscape:showpageshadow="2"
     inkscape:pageopacity="0.0"
     inkscape:pagecheckerboard="0"
     inkscape:deskcolor="#d1d1d1"
     inkscape:zoom="1.1749155"
     inkscape:cx="473.65108"
     inkscape:cy="269.38107"
     inkscape:window-width="2560"
     inkscape:window-height="1494"
     inkscape:window-x="2869"
     inkscape:window-y="-11"
     inkscape:window-maximized="1"
     inkscape:current-layer="g1" />
  <g
     inkscape:groupmode="layer"
     inkscape:label="Image"
     id="g1">
    <path
       style="display:inline;fill:none;stroke:#2a2a2a;stroke-width:2;stroke-dasharray:none"
       d="m 528.00004,121.33334 1.37036,8.89197 7.96399,1.62449 10.66565,-4.10185 L 594.66671,112 m -482.6667,12 c 8.08249,10.11847 1.30402,20.04735 -13.333336,21.33334 m 744.000056,-20 c -12.86784,8.68233 -20.42546,17.27901 -27.50204,32 -7.20882,14.99603 -27.83097,57.07218 2.16871,61.08024 5.7998,0.77488 10.8977,-0.3901 16,-2.91667 8.90128,-4.40771 18.25195,-10.98645 23.87549,-19.61625 2.52124,-3.8691 5.4733,-10.41138 5.35286,-14.5144 -0.13607,-4.63522 -1.9034,-5.56149 -2.56168,-6.69959 10.85782,-5.69263 13.76676,-4.48736 25.33333,-6.66666 0,2.57947 -0.1285,5.79976 0.0257,9.33538 0.1582,3.6258 0.43156,7.27782 4.17179,9.23664 6.56063,3.43591 12.5188,-3.26852 18.24284,-8.67798 6.26725,-5.92277 8.45833,-8.74833 10.89299,-11.22738 1.61694,2.24751 3.05753,4.02588 3.86727,8.00619 0.65714,3.23018 1.50683,7.68542 4.43725,9.16459 1.64942,0.83258 4.32699,1.06889 7.6224,-0.98765 3.17415,-1.98086 4.12549,-3.78685 5.7264,-6.85598 3.9812,-7.63222 11.62598,-17.84621 19.68001,-23.06173 7.72372,-5.0016 19.667,-7.76906 24.9043,-1.96089 6.00684,6.66156 2.4231,15.76147 -2.3374,23.69032 -5.42513,9.03587 -17.5765,14.56448 -27.90023,15.59878 -8.08325,0.80984 -11.13127,-2.47292 -14.66667,-10.26029 M 389.33336,128 l 8,24 10.66667,-2.66666 M 346.66669,132 c 2.55152,3.87604 4.57304,5.4433 6.22014,13.33232 0.36417,1.74439 0.49975,5.56995 1.80969,6.95164 2.33004,2.45768 5.03215,0.29085 6.63684,-0.28396 m 165.33335,-18.66666 c -4.39384,10.95438 -5.29643,22.60917 -5.33334,36 15.36268,-0.3595 38.22803,-12.09184 57.33334,-14.66667 m -164.00001,-20 4,1.33333 m -300.00002,1.33334 h 8 m 388.00003,4 8,-1.33334 m -342.6667,2.66667 c -5.03489,3.8701 -9.41529,5.95111 -12.64917,9.7675 -5.46712,6.4519 -2.82928,6.58817 -7.35083,15.56584 4.99363,2.87933 13.88369,3.09183 17.68211,8.19753 2.72333,3.66062 4.65481,10.59653 0.50822,12.69854 -4.12319,2.09017 -10.85971,-0.94443 -15.52366,-2.27571 -4.19633,-1.1978 -6.81597,-3.08905 -9.2963,-0.35801 -1.86285,2.05114 -1.36519,7.22322 -1.37037,9.73765 -0.0213,10.36413 0,21.99894 0,30.66666 m 584.00005,-80 c -4.97372,1.80394 -8.99195,3.29181 -13.33228,6.53807 -4.91309,3.67464 -13.49837,11.7555 -10.11939,18.4249 2.43221,4.80072 9.02499,5.12039 14.11833,5.87757 6.43205,0.95622 18.36296,1.47656 21.04427,7.96606 1.57618,3.81484 -0.90584,6.79354 -3.88891,8.60388 -5.2902,3.21054 -13.93645,4.38151 -18.48869,4.58952 M 278.66669,148 c 0.002,17.0302 7.41638,14.66667 22.66667,14.66667 m 344.00002,-13.33333 c 0.25765,5.42859 0.33378,10.31653 -0.22534,16 -0.60209,6.12012 -2.86617,15.95302 2.24386,20.52779 7.34643,6.57693 22.93168,-2.62724 31.31482,-5.86112 M 250.66669,152 c 2.35854,3.85877 3.66607,8.89464 6.11318,11.19548 1.91978,1.80504 4.70829,2.14127 9.88682,1.5895 5.3585,-0.57095 8.61198,-0.92226 10.66666,-2.11831 M 397.33336,152 l -9.30965,3.04218 -6.41976,5.04012 0.7891,17.25104 -1.05969,10.66667 12.33846,-9.33952 5.9445,-9.32715 -2.28296,-14.66667 M 600.00005,152 c -1.52588,8.21937 -6.14543,24.65634 0.11934,32.90947 6.71956,8.85225 24.70659,-2.12695 31.88066,-4.90946 m -480.00004,2.66666 c -0.0657,-7.93803 -3.47414,-13.54107 -0.52881,-21.31276 2.93636,-7.74803 6.84788,-7.63656 13.86215,-8.02057 m 526.6667,0 c 0,4.31826 0.16016,6.59613 -0.1193,10.66667 -0.5363,7.81075 -2.55436,13.85921 2.78597,20 M 115.92079,155.71399 c 9.79093,-1.39044 0.17327,17.48763 -8.67489,13.29733 -7.907035,-3.74462 3.17789,-12.51669 8.67489,-13.29733 m 236.07924,-1.04732 c -0.10515,6.75405 0.60457,12.03137 5.52571,12.47119 5.87122,0.52474 18.29537,-4.43613 22.47429,-4.47119 m 512.00004,-8 c -5.49764,15.53455 7.23836,8.13019 15.99796,8.1965 5.84205,0.0442 7.40642,2.41618 9.33537,3.8035 m -582.66671,-8 h 16 M 140.00001,161.33334 150.66668,160 m 78.66667,2.66667 3.04218,11.43417 2.44547,7.25205 6.81173,22.34259 6.39199,3.94753 39.9753,-4.97634 m 601.33338,-38.66666 -4,4 m -630.66671,-2.66667 c -6.14665,6.98938 -10.53199,6.32098 -18.66667,8 m 41.33333,-6.66667 c -0.71339,5.63985 1.75578,7.63068 -3.47017,14.36214 -2.87002,3.69682 -10.48743,7.98739 -15.7253,4.21501 -4.07878,-2.93758 -3.0892,-11.06999 -3.47119,-15.91048 m 158.66667,-2.66667 c -1.96081,6.69979 -3.15755,8.95333 -6.66666,13.33334 l -6.66667,-9.33334 m -48,-2.66666 c -7.30555,9.01458 -23.08558,13.46932 -32.00001,16 m 201.33335,-14.66667 c -4.87528,6.77771 -3.45768,8.3116 -4.38065,16 -1.07622,8.96497 -7.88729,41.18892 9.715,40.32304 7.25171,-0.35673 13.24154,-6.90035 18.66565,-10.98971 7.79639,-5.87787 20.03675,-14.62785 28.00001,-20 M 132.00001,173.33334 c -5.05841,5.05841 -8.07643,8.07641 -13.33333,13.33333 l -5.33334,-6.66666 11.99795,-7.22738 9.33539,-2.10596 m 214.66668,1.33334 c 3.89319,4.50821 5.99528,8.97753 5.99382,14.66461 -0.003,10.62087 -8.02397,8.98663 -16.66049,4.00205 l 2.66667,-5.33333 m -110.66668,-12 c -7.17639,3.9779 -15.32257,4 -25.33333,4 m 610.66671,5.33333 c 2.42893,-0.007 4.87225,-0.21326 7.32302,-0.55616 2.21243,-0.30956 4.43093,-0.73025 6.6504,-1.21534 4.2364,-0.92592 8.4763,-2.08649 12.68415,-3.15686 5.87555,-1.49458 11.68862,-2.81329 17.34244,-3.07164 m -496.00004,8 16,-5.33333 m -281.333356,6.66667 14.666666,-4 m 293.33336,0 c -1.03638,6.69783 -5.54216,10.25252 -12,14.66666 m 12,-8 c 3.29484,5.17387 5.14339,12.49636 12,10.66667 l -1.33333,-4 m -298.66669,-5.33333 2.12242,14.64095 -3.76028,5.66152 -11.69548,-0.30247 m 16,-16 h 4 m 213.33335,0 -13.33333,14.66666 m 29.33333,-13.33333 c 3.01567,2.68848 6.26209,5.19234 10.66667,7.2078 11.34526,5.19139 23.91,15.684 36,20.95785 8.98955,3.92137 18.28939,5.04789 25.33334,6.50102 M 89.33334,205.33334 118.66668,194.66667"
       id="path1"
       sodipodi:nodetypes="ccccccccsssssccssscsssssssscccccsscccccccccccscsssscccsssssccccssccssccccccccccsccsccsccsccsccsccccccccccccccccsscccccccssscccccccccccccssscccccccccccccccccccssccc" />
  </g>
</svg>
